# xmcd
#
# Track frame offsets:
#	150
#	24059
#	46455
#	64694
#	86361
#	107435
#	130885
#	149772
#	169415
#	189462
#
# Disc length: 2810 seconds
#
# Revision: 1
# Processed by: cddbd v1.5.1PL0 Copyright (c) Steve Scherf et al.
# Submitted via: EasyCDDAExtractor 6.5.0.1
#
DISCID=830af80a
DTITLE=Domingo Quiñones - Los maestros de la salsa
DYEAR=1995
DGENRE=Salsa
TTITLE0=no hace falta
TTITLE1=no me dejes de amar
TTITLE2=dos amigos
TTITLE3=fuera de control
TTITLE4=a pesar de la distancia
TTITLE5=en la intimidad
TTITLE6=lugares
TTITLE7=escalofrio
TTITLE8=llegaste a mi cuerpo abierto
TTITLE9=siempre un poco mas
EXTD=
EXTT0=
EXTT1=
EXTT2=
EXTT3=
EXTT4=
EXTT5=
EXTT6=
EXTT7=
EXTT8=
EXTT9=
PLAYORDER=
